<svg width="295" height="126" viewBox="0 0 295 126" fill="none" xmlns="http://www.w3.org/2000/svg">
<path d="M14.592 11.648H0.256V3.2H39.296V11.648H24.96V48H14.592V11.648ZM78.1085 13.568V48H68.6365V43.904C67.3138 45.3973 65.7352 46.5493 63.9005 47.36C62.0658 48.128 60.0818 48.512 57.9485 48.512C53.4258 48.512 49.8418 47.2107 47.1965 44.608C44.5512 42.0053 43.2285 38.144 43.2285 33.024V13.568H53.2125V31.552C53.2125 37.0987 55.5378 39.872 60.1885 39.872C62.5778 39.872 64.4978 39.104 65.9485 37.568C67.3992 35.9893 68.1245 33.664 68.1245 30.592V13.568H78.1085ZM107.71 13.056C110.91 13.056 113.811 13.8027 116.414 15.296C119.059 16.7467 121.129 18.816 122.622 21.504C124.115 24.1493 124.862 27.2427 124.862 30.784C124.862 34.3253 124.115 37.44 122.622 40.128C121.129 42.7733 119.059 44.8427 116.414 46.336C113.811 47.7867 110.91 48.512 107.71 48.512C102.974 48.512 99.3687 47.0187 96.894 44.032V48H87.358V0.511997H97.342V17.216C99.8593 14.4427 103.315 13.056 107.71 13.056ZM105.982 40.32C108.542 40.32 110.633 39.4667 112.254 37.76C113.918 36.0107 114.75 33.6853 114.75 30.784C114.75 27.8827 113.918 25.5787 112.254 23.872C110.633 22.1227 108.542 21.248 105.982 21.248C103.422 21.248 101.31 22.1227 99.646 23.872C98.0247 25.5787 97.214 27.8827 97.214 30.784C97.214 33.6853 98.0247 36.0107 99.646 37.76C101.31 39.4667 103.422 40.32 105.982 40.32ZM144.871 13.056C150.204 13.056 154.3 14.336 157.159 16.896C160.018 19.4133 161.447 23.232 161.447 28.352V48H152.103V43.712C150.226 46.912 146.727 48.512 141.607 48.512C138.962 48.512 136.658 48.064 134.695 47.168C132.775 46.272 131.303 45.0347 130.279 43.456C129.255 41.8773 128.743 40.0853 128.743 38.08C128.743 34.88 129.938 32.3627 132.327 30.528C134.759 28.6933 138.492 27.776 143.527 27.776H151.463C151.463 25.6 150.802 23.936 149.479 22.784C148.156 21.5893 146.172 20.992 143.527 20.992C141.692 20.992 139.879 21.2907 138.087 21.888C136.338 22.4427 134.844 23.2107 133.607 24.192L130.023 17.216C131.9 15.8933 134.14 14.8693 136.743 14.144C139.388 13.4187 142.098 13.056 144.871 13.056ZM144.103 41.792C145.81 41.792 147.324 41.408 148.647 40.64C149.97 39.8293 150.908 38.656 151.463 37.12V33.6H144.615C140.519 33.6 138.471 34.944 138.471 37.632C138.471 38.912 138.962 39.936 139.943 40.704C140.967 41.4293 142.354 41.792 144.103 41.792ZM126.209 89.896H135.681V108.072C133.249 109.907 130.433 111.315 127.233 112.296C124.033 113.277 120.812 113.768 117.569 113.768C112.918 113.768 108.737 112.787 105.025 110.824C101.313 108.819 98.3903 106.067 96.257 102.568C94.1663 99.0267 93.121 95.0373 93.121 90.6C93.121 86.1627 94.1663 82.1947 96.257 78.696C98.3903 75.1547 101.334 72.4027 105.089 70.44C108.844 68.4347 113.068 67.432 117.761 67.432C121.686 67.432 125.249 68.0933 128.449 69.416C131.649 70.7387 134.337 72.6587 136.513 75.176L129.857 81.32C126.657 77.9493 122.796 76.264 118.273 76.264C115.414 76.264 112.876 76.8613 110.657 78.056C108.438 79.2507 106.71 80.936 105.473 83.112C104.236 85.288 103.617 87.784 103.617 90.6C103.617 93.3733 104.236 95.848 105.473 98.024C106.71 100.2 108.417 101.907 110.593 103.144C112.812 104.339 115.329 104.936 118.145 104.936C121.132 104.936 123.82 104.296 126.209 103.016V89.896ZM154.144 83.112C155.339 81.448 156.939 80.1893 158.944 79.336C160.992 78.4827 163.339 78.056 165.984 78.056V87.272C164.875 87.1867 164.128 87.144 163.744 87.144C160.885 87.144 158.645 87.9547 157.024 89.576C155.403 91.1547 154.592 93.544 154.592 96.744V113H144.608V78.568H154.144V83.112ZM187.992 113.512C184.365 113.512 181.101 112.765 178.2 111.272C175.341 109.736 173.101 107.624 171.48 104.936C169.859 102.248 169.048 99.1973 169.048 95.784C169.048 92.3707 169.859 89.32 171.48 86.632C173.101 83.944 175.341 81.8533 178.2 80.36C181.101 78.824 184.365 78.056 187.992 78.056C191.619 78.056 194.861 78.824 197.72 80.36C200.579 81.8533 202.819 83.944 204.44 86.632C206.061 89.32 206.872 92.3707 206.872 95.784C206.872 99.1973 206.061 102.248 204.44 104.936C202.819 107.624 200.579 109.736 197.72 111.272C194.861 112.765 191.619 113.512 187.992 113.512ZM187.992 105.32C190.552 105.32 192.643 104.467 194.264 102.76C195.928 101.011 196.76 98.6853 196.76 95.784C196.76 92.8827 195.928 90.5787 194.264 88.872C192.643 87.1227 190.552 86.248 187.992 86.248C185.432 86.248 183.32 87.1227 181.656 88.872C179.992 90.5787 179.16 92.8827 179.16 95.784C179.16 98.6853 179.992 101.011 181.656 102.76C183.32 104.467 185.432 105.32 187.992 105.32ZM248.234 78.568V113H238.762V108.904C237.439 110.397 235.86 111.549 234.026 112.36C232.191 113.128 230.207 113.512 228.074 113.512C223.551 113.512 219.967 112.211 217.322 109.608C214.676 107.005 213.354 103.144 213.354 98.024V78.568H223.338V96.552C223.338 102.099 225.663 104.872 230.314 104.872C232.703 104.872 234.623 104.104 236.074 102.568C237.524 100.989 238.25 98.664 238.25 95.592V78.568H248.234ZM277.835 78.056C281.035 78.056 283.936 78.8027 286.539 80.296C289.184 81.7467 291.254 83.816 292.747 86.504C294.24 89.1493 294.987 92.2427 294.987 95.784C294.987 99.3253 294.24 102.44 292.747 105.128C291.254 107.773 289.184 109.843 286.539 111.336C283.936 112.787 281.035 113.512 277.835 113.512C273.44 113.512 269.984 112.125 267.467 109.352V125.416H257.483V78.568H267.019V82.536C269.494 79.5493 273.099 78.056 277.835 78.056ZM276.107 105.32C278.667 105.32 280.758 104.467 282.379 102.76C284.043 101.011 284.875 98.6853 284.875 95.784C284.875 92.8827 284.043 90.5787 282.379 88.872C280.758 87.1227 278.667 86.248 276.107 86.248C273.547 86.248 271.435 87.1227 269.771 88.872C268.15 90.5787 267.339 92.8827 267.339 95.784C267.339 98.6853 268.15 101.011 269.771 102.76C271.435 104.467 273.547 105.32 276.107 105.32Z" fill="black"/>
</svg>
